<?xml version="1.0" standalone="no"?>
<!DOCTYPE svg PUBLIC "-//W3C//DTD SVG 20010904//EN"
 "http://www.w3.org/TR/2001/REC-SVG-20010904/DTD/svg10.dtd">
<svg version="1.0" xmlns="http://www.w3.org/2000/svg"
 width="256.000000pt" height="256.000000pt" viewBox="0 0 256.000000 256.000000"
 preserveAspectRatio="xMidYMid meet">

<g transform="translate(0.000000,256.000000) scale(0.100000,-0.100000)"
fill="#000000" stroke="none">
<path d="M1630 2419 c11 -7 4 -8 -25 -4 -31 4 -36 3 -20 -5 16 -9 14 -9 -13
-5 -22 3 -31 1 -26 -6 4 -8 -1 -9 -16 -4 -17 5 -21 4 -15 -6 6 -9 3 -11 -8 -6
-20 7 -49 -2 -42 -13 2 -4 -7 -12 -21 -19 -18 -8 -23 -8 -18 0 4 8 0 8 -15 0
-22 -12 -30 -27 -8 -16 18 10 -25 -25 -47 -37 -14 -8 -17 -7 -11 2 4 7 -6 2
-23 -10 l-31 -23 -58 40 c-74 51 -141 85 -153 78 -6 -3 -10 -1 -10 5 0 7 -8 9
-21 5 -16 -5 -19 -4 -14 5 5 9 4 11 -3 6 -7 -4 -21 -9 -31 -11 -76 -14 -264
-145 -361 -252 -96 -105 -170 -244 -170 -322 0 -20 -3 -22 -12 -13 -9 9 -13
46 -13 112 0 82 -2 94 -10 69 l-11 -30 -27 25 c-15 14 -27 20 -28 13 0 -7 -5
-3 -10 8 -7 16 -9 14 -6 -12 2 -19 -1 -29 -6 -26 -18 11 0 -187 23 -262 27
-86 76 -185 138 -278 l47 -70 5 109 c6 111 17 151 57 186 33 30 90 48 153 48
l60 0 0 150 c0 175 11 211 82 257 l42 28 335 0 c376 0 373 0 428 -72 24 -31
29 -47 32 -115 l3 -78 75 0 c89 0 141 -24 176 -80 20 -33 22 -49 25 -239 l4
-204 39 59 c63 93 126 225 149 310 24 94 26 225 5 308 -50 190 -208 346 -396
391 -74 17 -223 21 -199 4z"/>
<path d="M1000 2003 c-39 -14 -40 -22 -40 -480 l0 -444 58 3 57 3 5 75 c10
136 74 195 210 194 82 0 117 -13 162 -61 37 -39 48 -73 48 -149 l0 -64 60 0
60 0 0 449 0 450 -22 15 c-19 14 -64 16 -303 15 -154 0 -287 -3 -295 -6z m463
-164 c12 -7 25 -17 29 -23 14 -21 8 -66 -12 -86 -18 -18 -33 -20 -185 -20
-163 0 -166 0 -190 25 -14 13 -25 34 -25 45 0 12 11 32 25 45 24 24 28 25 180
25 98 0 164 -4 178 -11z m12 -250 c31 -25 33 -71 5 -99 -18 -18 -33 -20 -187
-20 -157 0 -168 1 -190 22 -25 23 -29 48 -12 79 17 33 46 38 206 38 137 -1
155 -3 178 -20z"/>
<path d="M1750 1414 l0 -338 70 69 70 69 0 252 c0 287 4 275 -86 282 l-54 4 0
-338z"/>
<path d="M712 1547 c-7 -8 -12 -75 -13 -172 l-1 -160 66 -70 65 -70 0 243 1
242 -54 0 c-32 0 -58 -5 -64 -13z"/>
<path d="M1250 1217 c-22 -11 -25 -20 -28 -70 l-3 -57 71 0 70 0 0 54 c0 45
-4 58 -22 70 -27 19 -54 20 -88 3z"/>
<path d="M1102 1072 c-8 -10 -10 -11 -5 -2 5 12 4 13 -8 3 -10 -8 -62 -11
-167 -10 -83 1 -152 -2 -152 -7 0 -4 -26 -5 -57 -2 -42 5 -54 4 -43 -4 11 -7
0 -8 -39 -4 -36 4 -52 3 -47 -4 4 -6 -4 -9 -21 -7 -34 4 -155 -14 -167 -25 -5
-5 -14 -6 -21 -3 -8 2 -23 0 -34 -7 -18 -9 -21 -20 -21 -75 l0 -64 -32 -5
c-18 -3 -85 -13 -148 -21 -63 -9 -117 -18 -119 -21 -3 -2 7 -17 21 -32 33 -35
128 -163 128 -172 0 -3 -34 -67 -75 -140 -41 -74 -73 -135 -71 -137 1 -2 45 3
98 11 52 8 168 20 259 26 242 16 230 13 227 63 l-3 42 85 7 c47 3 158 9 248
13 l162 8 58 -40 c31 -22 72 -48 89 -57 31 -16 35 -15 75 5 24 12 63 37 88 56
l45 35 120 -6 c183 -9 286 -16 333 -22 41 -5 42 -6 42 -44 0 -46 0 -46 165
-55 129 -7 346 -32 393 -45 17 -4 32 -6 32 -4 0 3 -35 67 -79 143 l-78 139 78
103 c44 56 78 103 76 105 -1 1 -56 10 -122 18 -66 9 -134 19 -152 21 l-31 6 1
66 2 67 -44 13 c-109 32 -385 64 -591 68 -58 2 -114 4 -125 5 -11 2 -93 2
-182 0 -89 -1 -166 1 -170 3 -5 3 -15 -2 -21 -11z m151 -9 c-7 -2 -19 -2 -25
0 -7 3 -2 5 12 5 14 0 19 -2 13 -5z m57 -110 c58 -139 57 -133 16 -133 -26 0
-36 5 -41 20 -5 15 -15 20 -45 20 -29 0 -42 -5 -50 -20 -7 -13 -21 -20 -40
-20 -17 0 -30 2 -30 5 0 9 68 182 80 205 8 16 19 20 41 18 28 -3 33 -10 69
-95z m-480 53 c0 -27 -16 -36 -66 -36 -27 0 -34 -4 -34 -19 0 -17 5 -19 36
-14 25 4 39 2 45 -8 17 -27 9 -38 -35 -44 -34 -5 -43 -11 -39 -23 3 -14 14
-16 54 -14 46 4 49 3 49 -21 0 -21 -5 -25 -46 -31 -73 -10 -111 -7 -117 7 -3
8 -8 59 -12 115 l-7 101 48 4 c123 9 124 9 124 -17z m605 -16 c4 -7 12 -7 25
0 28 15 48 12 68 -8 16 -16 22 -17 37 -5 31 22 71 16 95 -14 18 -23 21 -38 18
-88 -3 -59 -3 -60 -35 -63 l-32 -3 -3 63 c-3 55 -5 63 -23 63 -17 0 -21 -10
-29 -63 -9 -60 -11 -63 -35 -60 -24 3 -26 7 -29 66 -3 59 -5 63 -25 60 -19 -3
-22 -10 -25 -61 l-3 -58 -32 3 -32 3 -3 74 c-2 41 -1 80 2 88 6 15 52 18 61 3z
m-397 -92 c3 -88 3 -88 -22 -88 -14 0 -28 4 -31 10 -4 6 -15 4 -29 -6 -29 -18
-72 -10 -87 17 -5 11 -12 48 -16 84 l-6 65 36 0 36 0 3 -57 c3 -51 6 -58 26
-61 25 -4 25 -1 22 76 l-2 53 34 -3 33 -3 3 -87z m833 53 c75 -76 -2 -185
-106 -151 -44 15 -65 44 -65 93 0 54 37 87 97 87 36 0 50 -6 74 -29z m-376
-196 c0 -13 -8 -21 -24 -23 -28 -4 -46 11 -37 33 9 25 61 16 61 -10z m-297
-18 c3 -27 2 -27 -36 -21 -55 9 -82 -8 -82 -50 0 -51 39 -72 96 -53 17 6 23 3
27 -12 11 -43 -67 -64 -128 -36 -73 35 -85 128 -23 180 26 22 38 26 87 23 53
-3 56 -5 59 -31z m508 -28 c-3 -34 -6 -84 -6 -110 0 -48 -1 -49 -30 -49 -17 0
-30 5 -30 12 0 9 -3 9 -12 0 -16 -16 -59 -15 -81 2 -26 20 -40 68 -28 99 14
37 55 61 91 53 26 -5 30 -3 30 18 0 30 7 36 43 36 l30 0 -7 -61z m-416 -44 c5
-58 8 -62 40 -56 5 0 10 27 12 59 3 54 4 57 31 60 l27 3 0 -84 c0 -83 -1 -85
-25 -89 -14 -3 -28 -2 -30 2 -3 5 -18 3 -34 -3 -57 -21 -91 25 -91 123 0 44 6
52 40 48 23 -3 25 -8 30 -63z m200 -35 c0 -83 -4 -89 -44 -74 -13 5 -16 22
-16 80 l0 74 30 0 30 0 0 -80z m387 60 c58 -35 56 -108 -4 -143 -62 -36 -143
5 -143 72 0 79 75 115 147 71z m-1032 -27 c4 -21 7 -45 8 -53 1 -8 9 -15 17
-15 11 0 16 14 18 53 3 48 5 52 28 52 21 0 24 -4 24 -39 0 -21 3 -53 6 -70 6
-31 6 -32 -27 -31 -19 1 -45 -2 -59 -5 -36 -9 -57 19 -62 82 -5 57 -3 63 23
63 13 0 20 -10 24 -37z m-83 10 c10 -9 18 -26 18 -38 0 -18 -8 -23 -47 -32
-39 -7 -44 -11 -29 -18 11 -5 31 -4 47 2 26 10 29 9 29 -8 0 -35 -76 -53 -112
-25 -39 29 -39 94 -1 124 24 17 73 15 95 -5z"/>
<path d="M1223 945 c-11 -34 -10 -35 14 -35 21 0 23 3 17 23 -14 46 -20 48
-31 12z"/>
<path d="M1770 915 c-7 -8 -10 -25 -6 -40 5 -20 13 -25 36 -25 23 0 31 5 36
25 7 29 -10 55 -36 55 -10 0 -23 -7 -30 -15z"/>
<path d="M1581 656 c-18 -22 4 -58 32 -54 31 4 32 62 1 66 -11 2 -26 -4 -33
-12z"/>
<path d="M1797 653 c-4 -3 -7 -19 -7 -34 0 -19 6 -30 20 -34 39 -12 66 35 38
63 -13 13 -41 16 -51 5z"/>
<path d="M690 645 c-11 -13 -8 -15 13 -15 30 0 44 15 21 24 -21 8 -20 8 -34
-9z"/>
<path d="M898 1073 c7 -3 16 -2 19 1 4 3 -2 6 -13 5 -11 0 -14 -3 -6 -6z"/>
</g>
</svg>
